<svg width="27" height="26" viewBox="0 0 27 26" fill="none" xmlns="http://www.w3.org/2000/svg">
<path d="M1 9.875C1 9.14565 1.29266 8.44618 1.81359 7.93046C2.33453 7.41473 3.04107 7.125 3.77778 7.125H5.06944C5.52665 7.12507 5.97679 7.01341 6.37995 6.79994C6.78311 6.58646 7.12681 6.27777 7.38056 5.90125L8.50833 4.22375C8.76208 3.84723 9.10578 3.53854 9.50894 3.32506C9.91209 3.11159 10.3622 2.99993 10.8194 3H16.1806C16.6378 2.99993 17.0879 3.11159 17.4911 3.32506C17.8942 3.53854 18.2379 3.84723 18.4917 4.22375L19.6194 5.90125C19.8732 6.27777 20.2169 6.58646 20.62 6.79994C21.0232 7.01341 21.4734 7.12507 21.9306 7.125H23.2222C23.9589 7.125 24.6655 7.41473 25.1864 7.93046C25.7073 8.44618 26 9.14565 26 9.875V22.25C26 22.9793 25.7073 23.6788 25.1864 24.1945C24.6655 24.7103 23.9589 25 23.2222 25H3.77778C3.04107 25 2.33453 24.7103 1.81359 24.1945C1.29266 23.6788 1 22.9793 1 22.25V9.875Z" stroke="#18372E" stroke-width="1.5" stroke-linecap="round" stroke-linejoin="round"/>
<path d="M18 15.5C18 16.6935 17.5259 17.8381 16.682 18.682C15.8381 19.5259 14.6935 20 13.5 20C12.3065 20 11.1619 19.5259 10.318 18.682C9.47411 17.8381 9 16.6935 9 15.5C9 14.3065 9.47411 13.1619 10.318 12.318C11.1619 11.4741 12.3065 11 13.5 11C14.6935 11 15.8381 11.4741 16.682 12.318C17.5259 13.1619 18 14.3065 18 15.5V15.5Z" stroke="#18372E" stroke-width="1.5" stroke-linecap="round" stroke-linejoin="round"/>
<path fill-rule="evenodd" clip-rule="evenodd" d="M24 0C24.0758 0 24.1484 0.0301019 24.202 0.0836838C24.2556 0.137266 24.2857 0.209938 24.2857 0.285714V1.71429H25.7143C25.7901 1.71429 25.8627 1.74439 25.9163 1.79797C25.9699 1.85155 26 1.92422 26 2C26 2.07578 25.9699 2.14845 25.9163 2.20203C25.8627 2.25561 25.7901 2.28571 25.7143 2.28571H24.2857V3.71429C24.2857 3.79006 24.2556 3.86273 24.202 3.91632C24.1484 3.9699 24.0758 4 24 4C23.9242 4 23.8516 3.9699 23.798 3.91632C23.7444 3.86273 23.7143 3.79006 23.7143 3.71429V2.28571H22.2857C22.2099 2.28571 22.1373 2.25561 22.0837 2.20203C22.0301 2.14845 22 2.07578 22 2C22 1.92422 22.0301 1.85155 22.0837 1.79797C22.1373 1.74439 22.2099 1.71429 22.2857 1.71429H23.7143V0.285714C23.7143 0.209938 23.7444 0.137266 23.798 0.0836838C23.8516 0.0301019 23.9242 0 24 0V0Z" fill="black"/>
</svg>
