<?xml version="1.0" encoding="UTF-8"?>
<svg id="Lag_2" data-name="Lag 2" xmlns="http://www.w3.org/2000/svg" viewBox="0 0 250.29 262.79">
  <defs>
    <style>
      .cls-1 {
        fill: #fff;
      }

      .cls-2, .cls-3 {
        fill: #fed5c5;
      }

      .cls-4, .cls-5 {
        fill: #e1e1e1;
      }

      .cls-6, .cls-7 {
        fill: #18372e;
      }

      .cls-8 {
        fill: #24dd74;
      }

      .cls-9 {
        opacity: .32;
      }

      .cls-9, .cls-10 {
        fill: #8a8a8a;
      }

      .cls-7 {
        opacity: .16;
      }

      .cls-11 {
        fill: none;
        stroke: #24dd74;
        stroke-miterlimit: 10;
      }

      .cls-3 {
        opacity: 0;
      }

      .cls-10 {
        opacity: .56;
      }

      .cls-5 {
        opacity: .36;
      }
    </style>
  </defs>
  <g id="Lag_1-2" data-name="Lag 1">
    <g>
      <path class="cls-2" d="M173.33,158.65c.04-.46,.05-.93,.01-1.39-.08-1.02-.84-2.01-1.96-1.96-.12,0-.25,.02-.37,.05-.08-.02-.16-.04-.25-.05-.09-.02-.19-.02-.28-.03-.01,0-.03,0-.04,0,0,0-.01,0-.02,0-.1,0-.21,.01-.31,.03-.62,.09-1.06,.45-1.31,.91-.05,.08-.07,.16-.11,.25-.01,.04-.03,.07-.04,.11-.08,.21-.12,.42-.12,.65-.76-.58-1.93-.65-2.62,.11-.45,.49-.89,.98-1.34,1.47-.22,.24-.37,.55-.46,.87-.38,.59-.35,1.32-.05,2.03-.08-.19-.02-.04,.02,.06,.06,.15,.11,.3,.17,.45,.1,.27,.18,.54,.26,.82,.16,.55,.29,1.11,.39,1.68,.02,.12,.04,.23,.06,.35,0,.02,0,.05,0,.08,.03,.29,.06,.57,.07,.86,.03,.61,.03,1.21,0,1.82-.06,1.02,.94,2,1.96,1.96,.79-.04,1.32-.44,1.64-1.02,.29,.2,.63,.31,1.03,.3,1.01-.05,2.02-.86,1.96-1.96-.05-.45-.07-.9-.03-1.35,0-.07,.09-.6,0-.15,.04-.22,.08-.44,.13-.67,.18-.81,.44-1.61,.7-2.4,.1-.31,.2-.63,.29-.95,.29-.34,.46-.79,.5-1.28,.02-.21,0-.42,0-.64,.05-.34,.09-.68,.12-1.02Z"/>
      <circle class="cls-10" cx="44.1" cy="18.27" r="18.27"/>
      <path class="cls-4" d="M222.77,137.75c0,1.62-84.31,34.83-104.92,42.42-1.91,.74-3.26,1.25-3.97,1.49-8.3,2.77-110.3,47.55-111.9,47.3-1.59-.25-5.29-13.17,4.87-21.47,10.14-8.31,18.45-16.61,14.76-42.45-2.87-20.07-10.52-52.08-14.04-69.79-1.3-7.83-2.61-13-2.61-20.23,0-34.23,27.76-61.99,61.99-61.99,20.29,0,38.31,9.76,49.61,24.83l.04,.04c.37,.5,.81,1.11,1.32,1.83,7.66,10.87,30.26,46.38,44.94,65.95,15.66,20.88,27.4,20.88,40.45,19.57,10.71-1.07,17.03,6.64,18.41,10.17,.68,1.04,1.04,1.89,1.04,2.31Z"/>
      <ellipse class="cls-5" cx="126.32" cy="229.02" rx="123.97" ry="31.97"/>
      <path class="cls-3" d="M126.98,200.14c-.08-1.41-.66-2.72-1.58-3.85-2.44-3-6.79-4.72-10.57-4.93-3.75-.2-7.66,1.42-9.81,4.57-.62,.91-.89,1.77-.91,2.58-1.34,2.93-.94,6.54-.18,9.79-.55,2.42-.18,5.08,1.13,7.16,1.89,3,5.47,5.03,8.76,6.14,1.51,.51,3.17,.66,4.68,.15,.46,.04,.93,.03,1.41-.04,3.73-.54,5.4-4.22,5.67-7.6,.02-.24,.02-.49,.03-.73,.7-.78,1.27-1.67,1.61-2.73,.93-2.91,.16-6.02,.5-9,.07-.65-.24-1.17-.72-1.51Zm-18.74-.96c.29-.33,.63-.63,1.05-.89,.76-.47,1.64-.74,2.57-.88-.47,.24-.89,.55-1.28,.9-.7,.34-1.28,.8-1.75,1.36-.23-.15-.44-.31-.58-.49Zm7.17,14.61c-.13,.05-.46-.1-.79-.31,.75-.51,1.32-1.31,1.8-2.15,.05,.03,.1,.06,.15,.09-.06,.15-.11,.3-.17,.45-.14,.33-.58,1.75-.98,1.91Zm3.78-14.61c-.03-.13-.06-.26-.1-.38,.11,.06,.24,.11,.35,.18,1.05,.61,2.01,1.51,2.54,2.62-.89-.84-1.82-1.65-2.78-2.41Zm1.07,13.5c.13-.35,.26-.69,.38-1.05,.07-.03,.14-.06,.21-.09,.13,.02,.27,.03,.41,.05-.09,.21-.18,.41-.27,.61-.23,.16-.47,.32-.72,.48Z"/>
      <path class="cls-2" d="M118.22,213.09c-.04-1.31-1.05-1.93-2.04-1.88-.01,0-.02,0-.04-.01-.08,0-.16,0-.24,0-.09-.07-.18-.14-.28-.19-.36-.73-.93-1.32-1.87-1.61-.37-.11-.74-.09-1.08,.02-.02,0-.05,0-.07,0-.5,.02-.97,.23-1.33,.56-.26-.15-.57-.24-.92-.23-.68,.03-1.34,.41-1.7,.98-.29,.33-.47,.76-.49,1.22-.16,.27-.26,.59-.27,.98-.06,3.04-.01,6.09,.15,9.13,.05,.96,.63,1.55,1.33,1.78,.3,.71,.97,1.25,1.79,1.22,.06,0,.13-.02,.19-.03,.35,.49,.9,.84,1.55,.81,.44-.02,.8-.18,1.1-.4,.09,0,.18,0,.28-.02,0,0,.02,0,.02,0-.01,.46,0,.93-.02,1.39-.03,1.06,.92,1.96,1.96,1.96,1.09,0,1.92-.9,1.96-1.96,.15-4.57,.15-9.15,.01-13.72Z"/>
      <path class="cls-8" d="M175.95,170.15c-2.12-1.58-4.54-2.46-7.56-2.68-4.93-.36-5.38,2.55-8.76,5.3-.57,.47-1.16,.81-1.76,1.06-.33,2.18-.74,4.35-1.24,6.5-1.08,4.67-2.51,9.25-4.07,13.78-1.69,3.19-3.62,6.24-5.87,9.12-3.67,4.7-8.1,8.86-13.2,11.96-4.66,2.83-9.82,4.6-15.14,5.63-3.15,.8-6.49,.94-10,1.25-1.18,.11-2.37,.17-3.55,.24-8.01-.75-16.02,1.99-22.16,7.26-2.99,2.57-5.43,5.69-7.33,9.13-1.17,1.77-2.24,3.6-3.19,5.5-1.56,2.46-2.77,5.02-3.73,7.65,5.6,.38,11.32,2.8,16.72,4.07,1.28,.3,2.56,.59,3.84,.88,2.08,.28,4.15,.58,6.23,.87h1.11s-.06,.1-.09,.14c2.26,.3,4.53,.58,6.8,.78,1.49,.13,2.99,.22,4.49,.29,.02-.01,.04-.02,.06-.03,.06-.04,.1-.09,.16-.13,1.37-.08,2.74-.08,4.11-.03,.1,.12,.22,.24,.35,.35,7.15,.14,14.34-.14,21.47-.23,1.6-.11,3.2-.22,4.8-.3,.33-1.18,.69-2.34,1.12-3.48,.7-1.12,1.4-2.24,2.11-3.36,.27-.26,.54-.53,.79-.8,.34-.06,.67-.21,.97-.49,17.09-16.28,26.31-38.88,30.54-61.74,.89-4.82,1.57-9.68,2.08-14.56,0-.23,0-.45,0-.68-.02-1.08-.06-2.16-.1-3.23Z"/>
      <path class="cls-8" d="M171.61,199.25c-4.94,19.11-13.75,37.37-28.18,51.12-.29,.28-.63,.43-.97,.48-.25,.28-.52,.55-.79,.81-.7,1.12-1.4,2.24-2.11,3.36-.63,1.66-1.15,3.36-1.56,5.1-.07,.3-.19,.54-.33,.73-.19,0-.38,0-.58,0-.23,.01-.47,.02-.71,.02-.91,.02-1.83,.04-2.76,.05-2.41,.04-4.85,.06-7.3,.06-.4,0-.8,0-1.2-.01-.93,.01-1.86,0-2.79,0h-.14c-6.22-.05-12.32-.22-18.27-.51-.34,0-.67-.02-1-.04-1.23-.06-2.46-.13-3.67-.19-1.06-.07-2.11-.13-3.15-.2-9.08-.58-17.75-1.43-25.9-2.5-.96-.12-1.9-.25-2.84-.38h0c-.19-.03-.37-.05-.55-.08,1.09-4.48,2.73-8.8,5.3-12.87,.95-1.9,2.02-3.73,3.19-5.5,1.91-3.43,4.35-6.55,7.34-9.12,6.13-5.27,14.15-8.01,22.15-7.26,1.19-.07,2.37-.14,3.56-.25,3.51-.31,6.84-.45,10-1.25,5.32-1.03,10.47-2.79,15.14-5.62,5.1-3.1,9.53-7.27,13.2-11.96,1.39-1.79,2.66-3.66,3.83-5.58,7.28,.37,14.33,.9,21.09,1.59Z"/>
      <path class="cls-8" d="M102.92,260.42c.33,.02,.66,.03,1,.04t-.02,.01c-.33-.02-.66-.03-.98-.05Z"/>
      <path class="cls-8" d="M122.33,260.97c.93,0,1.86,.02,2.79,0-.01,0-.01,.01-.02,.01-.92-.01-1.85-.01-2.77-.02Z"/>
      <path class="cls-2" d="M123.61,198.81c-1.26-2.15-3.43-3.52-5.72-4.35-1.22-.44-2.5-.71-3.77-.96-1.48-.29-3.02-.58-4.5-.15-2.39,.69-4.43,2.8-5.58,4.95-.34,.63-.64,1.32-.86,2.04-.93,1.16-1.49,2.56-1.7,4.11-.19,1.47-.02,2.92,.3,4.35,.06,.73,.2,1.46,.45,2.17,.49,1.37,1.27,2.61,2.05,3.83,1.6,2.5,3.84,4.8,7.03,4.78,.06,0,.1-.02,.16-.03,2.1,.28,3.97-1.07,5.53-2.51,1.71-1.58,3.2-3.44,4.39-5.44,1.11-1.88,2.26-4.14,2.54-6.35,1.02-2.01,.82-4.52-.31-6.45Z"/>
      <path class="cls-6" d="M126.12,201c.11-.58,.19-1.17,.19-1.76,0-.79-.09-1.64-.37-2.38-.16-.43-.37-.81-.61-1.15-1.34-3.62-4.06-6.8-7.83-7.95-.67-.21-1.36-.31-2.06-.37-3.88-1.11-8.15-.63-11.64,1.57-2.13,1.34-3.97,3.24-5.14,5.48-1.51,2.9-1.22,5.66-.29,8.69,.16,.51,.45,.85,.81,1.06,.04,.24,.13,.47,.23,.69-.03,1.29,.06,2.59,.3,3.89,.08,.43,.48,.89,.85,1.1,.4,.23,.98,.33,1.42,.19,.77-.25,1.21-.83,1.31-1.54,.23-.29,.36-.65,.33-1.06-.05-.59-.06-1.18-.05-1.77,.23-.22,.43-.49,.48-.8,.11-.79,.3-1.56,.56-2.31,.02-.07,.05-.14,.08-.21,.26-.27,.51-.56,.78-.82,.29-.28,.59-.55,.9-.81,.06-.05,.13-.1,.19-.15,.01,0,.02-.01,.03-.02,.07-.05,.13-.09,.2-.14,.44,.4,1.05,.58,1.71,.46,2.73-.53,5.47-1.06,8.2-1.6,.31-.06,.59-.24,.81-.47,.27,0,.53,.04,.8,.06,.48,.26,.95,.55,1.39,.88,.55,.44,1.05,.94,1.51,1.46,.23,.69,.46,1.38,.7,2.07,.02,.05,.05,.09,.07,.14-.03,.38-.05,.76-.03,1.14,.04,.66,.33,1.25,.91,1.59,.54,.32,1.33,.36,1.86,0,1.58-1.08,1.74-2.83,1.51-4.58-.03-.19-.07-.37-.1-.55Z"/>
      <path class="cls-8" d="M137.09,260.86h0c-.24,.02-.47,.02-.71,.02,.24,0,.48,0,.71-.02Z"/>
      <path class="cls-2" d="M91.27,257.27c-.06-.37-.24-.72-.57-1-4.12-3.58-10.24-3.63-14.5-.28-.81,.64-.72,2.11,0,2.77,.42,.38,.88,.55,1.34,.55,.19,.15,.42,.27,.69,.34,3.78,1.08,7.78,1.44,11.69,.99,1.01-.12,2.01-.82,1.96-1.96-.02-.49-.25-1.02-.62-1.41Z"/>
      <path class="cls-1" d="M40.19,131.8c-5.49-29.4-19.6-79.96,1.1-113.19-2.04,.93-4.02,1.96-5.94,3.1-7.61,5-15.15,9.84-17.81,28.47-3.14,22-1.83,41.48,5.22,71.77s24.79,76.99-3.76,100.11h0c8.26-3.5,18.76-8.01,29.76-12.74,6.91-20.82-3.92-52.54-8.58-77.51Z"/>
      <path class="cls-5" d="M40.19,131.8c-5.49-29.4-19.6-79.96,1.1-113.19-2.04,.93-4.02,1.96-5.94,3.1-7.61,5-15.15,9.84-17.81,28.47-3.14,22-1.83,41.48,5.22,71.77s24.79,76.99-3.76,100.11h0c8.26-3.5,18.76-8.01,29.76-12.74,6.91-20.82-3.92-52.54-8.58-77.51Z"/>
      <path class="cls-1" d="M185.57,124.32c-8.49,9.32-27.76,22.91-27.76,22.91l45.5-21.96c-6.02,.6-11.76,.92-17.74-.95Z"/>
      <path class="cls-5" d="M185.57,124.32c-8.49,9.32-27.76,22.91-27.76,22.91l45.5-21.96c-6.02,.6-11.76,.92-17.74-.95Z"/>
      <path class="cls-1" d="M216.22,130.89s3.27,1.94,3.59,4.88c0,0-29.69,13.39-32.3,14.69s28.71-16.96,28.71-19.57Z"/>
      <path class="cls-5" d="M216.22,130.89s3.27,1.94,3.59,4.88c0,0-29.69,13.39-32.3,14.69s28.71-16.96,28.71-19.57Z"/>
      <path class="cls-9" d="M203.31,125.27c-4.73,.47-35.16,19.23-93.44,43.08C56.1,190.35,10.41,204.58,6.85,207.5c-10.15,8.3-6.46,21.22-4.87,21.47,1.61,.25,103.6-44.54,111.9-47.3,.7-.24,2.06-.74,3.97-1.49,20.61-7.59,104.92-40.81,104.92-42.42,0-.42-.37-1.27-1.04-2.31-1.38-3.52-7.7-11.24-18.41-10.17Z"/>
      <path class="cls-7" d="M122.19,260.97h.14c.93,0,1.86,.02,2.79,0,.4,.01,.8,.01,1.2,.01,2.45,0,4.89-.02,7.3-.06,.93-.01,1.85-.03,2.76-.05,.24,0,.48,0,.71-.02,.2,0,.39,0,.58,0,.14-.19,.26-.43,.33-.73,.41-1.74,.93-3.44,1.56-5.1,.71-1.12,1.41-2.24,2.11-3.36,.27-.26,.54-.53,.79-.81,.34-.05,.68-.2,.97-.48,3.74-3.56,7.09-7.43,10.11-11.54-9.6,6.89-27.6,16.71-56.33,21.27,.68,.04,1.36,.08,2.04,.13,1.21,.06,2.44,.13,3.67,.19,.33,.02,.66,.03,1,.04,5.95,.29,12.05,.46,18.27,.51Z"/>
      <path class="cls-8" d="M34,248.29c0-5.52-4.48-10-10-10,0,5.52,4.48,10,10,10Z"/>
      <path class="cls-8" d="M46,244.29h0c0,4.97-4.03,9-9,9h0c0-4.97,4.03-9,9-9Z" transform="translate(83 497.59) rotate(-180)"/>
      <line class="cls-11" x1="35.5" y1="243.79" x2="35.5" y2="262.79"/>
      <path class="cls-8" d="M224,190.29c0-5.52,4.48-10,10-10,0,5.52-4.48,10-10,10Z"/>
      <path class="cls-8" d="M212,188.29h0c4.97,0,9,4.03,9,9h0c-4.97,0-9-4.03-9-9h0Z"/>
      <line class="cls-11" x1="222.5" y1="185.79" x2="222.5" y2="205.29"/>
    </g>
  </g>
</svg>