<?xml version="1.0" encoding="UTF-8"?>
<svg id="Lag_2" data-name="Lag 2" xmlns="http://www.w3.org/2000/svg" viewBox="0 0 306.93 349.78">
  <defs>
    <style>
      .cls-1 {
        stroke: #8a8a8a;
        stroke-width: 6px;
      }

      .cls-1, .cls-2, .cls-3 {
        stroke-miterlimit: 10;
      }

      .cls-1, .cls-3 {
        fill: none;
      }

      .cls-4 {
        fill: #fff;
      }

      .cls-5, .cls-2 {
        fill: #ead5c5;
      }

      .cls-6 {
        fill: #fed5c5;
      }

      .cls-7, .cls-8, .cls-9, .cls-10, .cls-11 {
        fill: #8a8a8a;
      }

      .cls-12, .cls-13 {
        fill: #e1e1e1;
      }

      .cls-14 {
        fill: #18372e;
      }

      .cls-15 {
        fill: #24dd74;
      }

      .cls-2 {
        stroke: #ead5c5;
      }

      .cls-3 {
        stroke: #24dd74;
      }

      .cls-16, .cls-8 {
        opacity: .58;
      }

      .cls-9 {
        opacity: .56;
      }

      .cls-10 {
        opacity: .71;
      }

      .cls-11 {
        opacity: .43;
      }

      .cls-13 {
        opacity: .36;
      }
    </style>
  </defs>
  <g id="Lag_1-2" data-name="Lag 1">
    <g>
      <path class="cls-13" d="M226.84,341.66c-1.07-.06-1.54,.83-1.43,1.66-.04,0-.07,0-.11,0-4.27-.22-8.56-.25-12.83-.09,.33-.85-.12-2.09-1.33-2.2-.22-.02-.43-.03-.65-.05,.21-.83-.25-1.86-1.39-1.94-11.82-.86-23.67-1-35.5-.44-.15,0-.28,.05-.41,.09-19.17-.22-38.34-.04-57.5,.51-28.99-1.45-57.99,.81-86.97,1.71-8.57,.27-17.15,.41-25.73,.31-1.28-.02-1.71,1.29-1.29,2.18,.11,.65,.58,1.24,1.42,1.28,18.84,.98,37.7,1.36,56.56,1.13,3.18-.04,6.35-.1,9.53-.17,.22,.15,.5,.24,.84,.24l23.66-.27c.03,.71,.5,1.4,1.44,1.44,3.89,.16,7.78,.13,11.67-.07,.53-.02,1.07-.07,1.6-.1,.02,0,.04,0,.06,.01,10.51,.86,21.06,1.08,31.59,.68,3.54-.09,7.07-.29,10.6-.57,.09,0,.18,.01,.27,0,14.17-1.06,28.37-1.61,42.57-1.68,4.6,.13,9.21,.25,13.81,.38,0,0,0,0,.01,0,.21,.44,.64,.76,1.29,.72,4.9-.3,9.81-.37,14.71-.18,4.89,.19,9.75,.74,14.62,1.15,9.72,.83,19.23-.37,28.89-1.31,.69-.07,1.38-.13,2.07-.19,.16,.05,.33,.08,.54,.07,1.75-.1,3.51-.21,5.26-.31,.41-.33,.88-.62,1.42-.84,.5-.2,1-.35,1.51-.49,.25-.14,.5-.28,.79-.4,.13-.05,.27-.1,.4-.16,.38-.66,.95-1.24,1.71-1.71-17.9,.7-35.82,.59-53.71-.38Z"/>
      <path class="cls-8" d="M306.93,138.37l-.18,.13-12.59,9.2-13.57,9.91-26.65,19.47-7.56,5.52-6.71,4.9-4.76,3.48-3.35,2.45s-.01,.01-.01,0l-41.44,30.28-1.98,1.44-1.39,1.01s0,.01-.01,.01l-59.81,43.69-.05-.07-10.26-14.04-.33-.46-6.64-9.09L33.65,142.18c-4.78-6.54-3.35-15.71,3.19-20.49L173.44,21.91l1.61-1.18,17.03-12.44,1.1-.8c.17-.12,.34-.24,.51-.35,.52-.35,1.05-.66,1.6-.93,6.28-3.14,14.09-1.39,18.38,4.47l93.26,127.69Z"/>
      <path class="cls-8" d="M305.93,138.37l-.18,.13-12.59,9.2-13.57,9.91-26.65,19.47-7.56,5.52-6.71,4.9-4.76,3.48-3.35,2.45s-.01,.01-.01,0l-41.44,30.28-1.98,1.44-1.39,1.01s0,.01-.01,.01l-59.81,43.69-.05-.07-10.26-14.04-.33-.46-6.64-9.09L32.65,142.18c-4.78-6.54-3.35-15.71,3.19-20.49L172.44,21.91l1.61-1.18,17.03-12.44,1.1-.8c.17-.12,.34-.24,.51-.35,.52-.35,1.05-.66,1.6-.93,6.28-3.14,14.09-1.39,18.38,4.47l93.26,127.69Z"/>
      <polygon class="cls-7" points="284.06 133.88 283.79 133.82 283.68 133.8 283.57 133.78 265.01 147.34 126.41 248.59 116.6 255.75 116.27 255.3 116.28 255.29 126.39 247.91 190.17 201.32 208.04 188.26 264.73 146.86 265.16 146.54 266.33 145.69 267.55 144.8 270.57 142.59 277.8 137.31 282.83 133.63 283.35 133.25 283.52 133.13 283.89 133.64 283.94 133.71 284.06 133.88"/>
      <rect class="cls-4" x="159.58" y="66.86" width="158.85" height="24.12" transform="translate(161.75 -160.63) rotate(53.85)"/>
      <rect class="cls-4" x="148.03" y="57.97" width="151.88" height="48.84" transform="translate(158.39 -147.06) rotate(53.85)"/>
      <rect class="cls-4" x="152.08" y="63.07" width="155.84" height="26.89" transform="translate(156.12 -154.34) rotate(53.85)"/>
      <rect class="cls-4" x="150.07" y="63.93" width="158.5" height="23.07" transform="translate(154.99 -154.23) rotate(53.85)"/>
      <path class="cls-5" d="M179.57,267.62s.02,0,.03,0c.01-.04,0-.08,.01-.12,.01-.07,.02-.13,.03-.2-.02,.11-.05,.22-.07,.33Z"/>
      <path class="cls-2" d="M203.09,271.54c-.18,.31-.36,.62-.54,.92-.42-.22-.95-.26-1.45-.02-.2,.09-.37,.21-.55,.32-.13,0-.27,0-.4,.04-.01,0-.02,.01-.03,.01,.87-.61,1.83-1.06,2.97-1.27Z"/>
      <path class="cls-2" d="M179.61,267.48s0,.08-.01,.12c-.01,0-.02,.01-.03,.01,.02-.11,.05-.22,.07-.33,0,.07-.02,.13-.03,.2Z"/>
      <path class="cls-5" d="M179.94,253.94c-.01-.09-.03-.19-.06-.28-.03-.1-.08-.2-.12-.3-.04-.1-.08-.2-.13-.3-.1-.19-.25-.36-.38-.53-.19-.19-.41-.31-.66-.39-.2-.06-.4-.07-.6-.03-.2,0-.39,.07-.56,.18-.23,.13-.4,.31-.54,.54-.08,.17-.17,.35-.22,.54-.05,.19-.07,.38-.08,.58,0,.07,0,.13,0,.2,.02,.16,.03,.32,.07,.48,0,.03,.02,.07,.03,.1,.05,.2,.14,.37,.27,.51,.11,.16,.25,.29,.42,.39,.03,.02,.05,.02,.08,.04,.14,.14,.29,.25,.48,.31,.18,.09,.37,.14,.58,.13l.4-.05c.25-.07,.47-.2,.66-.39l.23-.3c.14-.23,.2-.49,.2-.76,0-.22-.04-.44-.07-.66Z"/>
      <path class="cls-5" d="M200.12,272.81c-1.31,.91-2.39,2.16-3.48,3.41-.24-.74,0-1.69,.91-2.07,.19-.08,.34-.2,.46-.37,.31-.41,.83-.62,1.35-.65,.23-.15,.47-.24,.76-.32Z"/>
      <g>
        <path class="cls-5" d="M187.83,228.63c-6.46,5.71-10.28,14.29-10.21,22.91,.02,3.01,.5,6.03,.2,9.03-.35,3.54-1.74,6.87-3,10.2-.33,.87-.66,1.84-.32,2.71,.21,.55,.65,.97,1.07,1.37,4.2,3.96,8.4,7.91,12.6,11.87,.31,.29,.65,.6,1.07,.68,.77,.14,1.44-.52,1.95-1.12,4.7-5.53,9.4-11.06,14.1-16.59,.67-.79,1.37-1.63,1.59-2.65,.18-.84,.02-1.71-.16-2.56-1.82-8.32-5.79-16.15-11.42-22.54-2.3-2.61-5.01-5.06-8.36-5.99"/>
        <path class="cls-5" d="M186.77,227.57c-6.38,5.72-10.28,14.01-10.63,22.58-.1,2.45,.19,4.89,.26,7.34s-.28,4.97-1.04,7.42c-.72,2.31-2.05,4.63-2.43,7.01s1.4,3.82,3.01,5.34c3.78,3.56,7.45,7.35,11.39,10.73,1.71,1.46,3.51,.9,4.9-.66,1.75-1.97,3.42-4.02,5.13-6.03s3.42-4.02,5.13-6.03c1.61-1.89,3.37-3.73,4.82-5.75s1.16-4.15,.6-6.46c-.52-2.17-1.19-4.31-2-6.39-1.82-4.68-4.26-9.08-7.32-13.06s-6.46-7.69-11.27-9.12c-1.85-.55-2.65,2.34-.8,2.89,3.75,1.12,6.52,4.1,8.92,7.05s4.56,6.4,6.24,9.93c.87,1.84,1.62,3.73,2.26,5.66,.59,1.81,1.31,3.81,1.49,5.72,.18,2.03-1.93,3.71-3.13,5.12-1.5,1.76-2.99,3.52-4.49,5.28s-2.99,3.52-4.49,5.28c-.75,.88-1.5,1.76-2.24,2.64-.36,.42-.7,.85-1.07,1.26-.11,.12-.23,.29-.36,.38-.35,.22-.05,.14-.3,.04-.39-.15-.9-.85-1.2-1.13-.36-.34-.72-.68-1.08-1.02-.9-.85-1.8-1.7-2.7-2.54-1.68-1.58-3.36-3.16-5.04-4.75-.84-.79-1.68-1.58-2.52-2.37s-1.08-1.25-.68-2.41c.69-2.04,1.57-4,2.19-6.06s1.03-4.18,1.09-6.34-.19-4.44-.27-6.66c-.29-8.64,3.32-17.03,9.75-22.8,1.44-1.29-.69-3.41-2.12-2.12h0Z"/>
      </g>
      <path class="cls-7" d="M306.79,138.3l-.02,.1-.02,.1-12.59,9.2-13.57,9.91-26.65,19.47-7.56,5.52-6.71,4.9-4.76,3.48-3.35,2.45h-.01l-41.44,30.28-1.98,1.44-1.39,1.01s0,.01,0,.01l-59.81,43.69-.05-.07-30.63,.84,20.36-14.88,9.81-7.16,138.6-101.25,18.45-13.48,.11-.08,.11,.02,.11,.02,.27,.06,11.34,2.2,11.39,2.22Z"/>
      <polygon class="cls-7" points="126.41 248.59 116.6 255.75 96.24 270.63 96.02 270.64 96.01 270.63 95.35 246.59 126.33 245.75 126.39 247.91 126.41 248.59"/>
      <polygon class="cls-7" points="283.57 133.78 265.01 147.34 265.02 147.26 265.16 146.54 265.2 146.32 265.54 144.61 266.9 137.57 268.22 130.79 282.63 133.6 282.83 133.63 283.57 133.78"/>
      <path class="cls-11" d="M285.68,134.73l-.11,.08-.11,.08-18.45,13.48-138.6,101.25-9.8,7.16h-.01l-20.36,14.88-.15,.11-.07-.1h-.01S4.82,144.08,4.82,144.08c-4.77-6.54-3.35-15.71,3.19-20.48L171.93,3.86c6.54-4.78,15.71-3.35,20.49,3.19l1.66,2.27,89.22,122.15,2.05,2.81,.33,.45Z"/>
      <path class="cls-12" d="M283.68,133.7l-.11,.08-.11,.08-18.45,13.48L126.41,248.59l-9.8,7.16h-.01l-20.36,14.88-.15,.11-.07-.1h-.01S2.82,143.05,2.82,143.05c-4.77-6.54-3.35-15.71,3.19-20.48L169.93,2.83c6.54-4.78,15.71-3.35,20.49,3.19l1.66,2.27,89.22,122.15,2.05,2.81,.33,.45Z"/>
      <path class="cls-6" d="M254.21,185.24s0,0,0,0v-.31c.02-.54-.29-1.02-.74-1.28-.25-.33-.57-.61-.95-.82-.08-.04-.15-.07-.23-.1-.08-.06-.13-.13-.21-.19-.25-.19-.57-.24-.89-.2-.36-.08-.74-.06-1.13,.05-.15-.01-.29-.02-.42-.03-.14-.02-.28-.02-.42,0-.61,0-1.23,.03-1.84,.13-.15,.01-.3,.04-.44,.09-.11,.02-.23,.04-.34,.07-.47-.06-.96,.05-1.38,.38,0,0-.01,.01-.02,.02-2.47,.87-4.62,2.47-6.11,4.63-.03,.02-.05,.04-.08,.06-.1,.09-.16,.2-.23,.31-.19,0-.38,0-.58,.01-.31,0-.62,.02-.94,.03,0,0,0,0,0,0-.47-.01-.93-.01-1.39-.01-.13-.03-.26-.04-.41-.03-.14,0-.28,.02-.41,.03-1.36,.02-2.71,.1-4.06,.21-.39,.02-.77,.05-1.15,.1-.24,.03-.49,.04-.73,.07-.48,.03-.96,.06-1.44,.09-.47,.04-.82,.24-1.06,.53-.09,.07-.18,.14-.25,.23-1.53,.52-.96,2.76,.56,2.86,.22,.04,.45,.06,.69,.02,.11-.02,.22-.03,.33-.05,.12,.03,.25,.05,.38,.04,.13-.01,.26-.02,.4-.03,.25,.33,.63,.55,1.14,.51,.34-.03,.69-.05,1.03-.08,.07,.03,.14,.04,.22,.06,.12,.72,.75,1.19,1.47,1.25,3.27,.25,6.54,.25,9.81,.02,0,.02,0,.04,0,.06,.21,1,1.04,1.87,1.95,2.3,1.9,.91,4.2,.49,5.59-1.12,.66-.76,1.05-1.62,1.29-2.59,.05-.2,.1-.41,.16-.61,.02-.07,.04-.15,.07-.22,0-.02,.08-.19,.08-.21,.1-.18,.16-.19,.3-.23,.03,0,.05-.02,.06-.02,0,0,.01,0,.02,0,.14-.01,.27,0,.41,0,.41,.02,.76,0,1.14-.21,.75-.43,.87-1.17,.88-1.97,.02-1.28-.02-2.55-.13-3.82Z"/>
      <path class="cls-6" d="M219.39,320.23c-.05-1.59-2-1.87-2.73-.84-.3-.02-.62,.05-.89,.2-.2,.03-.39,.09-.57,.19-.41-.02-.84,.13-1.14,.41-.19,.04-.37,.11-.53,.22-.24-.51-.79-.88-1.37-.88-.14,0-.28,.03-.41,.06-.67,.07-1.29,.55-1.3,1.43-.01,2.36-.02,4.73-.04,7.09,0,.36,.1,.65,.26,.87l.03,1.03c.02,.69,.41,1.12,.9,1.32,0,.04,0,.07,0,.11,0,.73,.56,1.35,1.26,1.47,.24,.17,.53,.27,.84,.27,.46,0,.84-.2,1.1-.51,.26,.27,.62,.43,1.03,.43,.16,0,.31-.03,.46-.08,.1,.02,.21,.04,.32,.04,.08,0,.16-.01,.23-.02,.05,0,.11,.02,.16,.02,.19,0,.36-.04,.52-.1,0,0,0,0,0,0,.87,0,1.42-.69,1.5-1.5,.35-3.73,.46-7.48,.34-11.23Z"/>
      <path class="cls-6" d="M145.56,296.96c.06-.48-.12-.97-.45-1.31,.02-.14,0-.28-.01-.41,.03-.02,.05-.04,.08-.05,.65-.48,.98-1.3,.54-2.05-.45-.77-1.31-.86-2.05-.54-.09,.04-.18,.09-.28,.13-.19,.01-.4,.07-.6,.18-.35-.07-.73-.03-1.05,.16-2.88,1.71-5.66,3.59-8.32,5.62-.6,.46-.93,1.2-.6,1.92-.43,.48-.59,1.15-.23,1.77,.29,.5,.98,.84,1.58,.73-.21,.92,.67,1.98,1.63,1.89,.42,.46,1.1,.69,1.81,.31,3.1-1.7,6.11-3.57,9.02-5.59,1.44-1,.45-3.03-1.06-2.74Z"/>
      <path class="cls-14" d="M203.15,274.49c-.43,.76-.89,1.49-1.34,2.24-2.46,6.56-7.01,12.19-12.78,16.07-.22,.17-.44,.36-.66,.53-2.29,1.8-4.72,3.4-7.26,4.82-1.45,.81-2.92,1.57-4.4,2.3-4.07,2.54-8.57,4.62-12.77,6.92-.76,.48-1.53,.95-2.29,1.4l-6.65,4c-.72,.43-1.61,.13-2.05-.54-4.29-6.51-8.59-13.02-12.88-19.52-.31-.47-.31-.93-.13-1.31,.06-.37,.27-.73,.68-1,9.13-5.94,18.27-11.89,27.41-17.83,.02-.01,.05-.03,.07-.04,.63-.66,1.28-1.31,1.92-1.95,2.96-3.31,5.63-7.1,6.39-11.4,.09-1.51,.01-3.05-.08-4.57-.16-2.5-.29-4.98,.09-7.45,.05-.48,.11-.96,.19-1.43,.14-.8,.33-1.58,.56-2.36,.5-2.1,1.26-4.13,2.29-6.04l.16-.39c.11-.29,.27-.5,.46-.66,.06-.13,.12-.26,.19-.39,.15-.29,.4-.5,.69-.62,.94-.64,2.46-.3,2.41,1.12-.21,5.95-.33,11.91-.36,17.86,1.09,.6,1.85,1.84,2.52,2.82,.88,1.31,1.65,2.69,2.4,4.09,.05,.09,.1,.18,.15,.28,.52,.59,1.04,1.18,1.56,1.77,.44-.11,.92-.04,1.35,.31,3.5,2.89,7.3,5.38,11.32,7.48,.67,.35,.86,1.14,.65,1.78,.41,.41,.56,1.05,.19,1.71Z"/>
      <path class="cls-16" d="M201.81,276.73c.45-.75,.91-1.48,1.34-2.24,.37-.66,.22-1.3-.19-1.71,.21-.64,.02-1.43-.65-1.78-4.02-2.1-7.82-4.59-11.32-7.48-.43-.35-.91-.42-1.35-.31-.52-.59-1.04-1.18-1.56-1.77-.05-.1-.1-.19-.15-.28-.75-1.4-1.52-2.78-2.4-4.09-.67-.98-1.43-2.22-2.52-2.82,.02-3.78,.09-7.57,.18-11.36-.32-.45-.65-.9-.95-1.37-.27-.42-.7-.63-1.14-.68,.05-.31,.1-.62,.14-.93l.02-.05c.1-.09,.2-.19,.28-.32,.71-1.07,1.31-2.2,1.8-3.38-.12-1.21-1.5-1.49-2.39-.89-.29,.12-.54,.33-.69,.62-.07,.13-.13,.26-.19,.39-.19,.16-.35,.37-.46,.66l-.16,.39c-1.03,1.91-1.79,3.94-2.29,6.04-.23,.78-.42,1.56-.56,2.36-.08,.47-.14,.95-.19,1.43-.05,.29-.06,.59-.09,.88-.05,.53-.09,1.06-.12,1.59-.06,1.65,.02,3.31,.12,4.98,.08,1.29,.14,2.59,.1,3.88,.42,5.59,3.16,10.93,5.72,15.91,1.74,3.39,3.46,6.86,5.6,10.02,1.14,1.68,2.98,4.6,5.21,5.28,3.9-3.55,6.97-7.99,8.84-12.97Z"/>
      <path class="cls-14" d="M238.91,271.86c-.04-.1-.07-.2-.1-.29-.29-.76-.62-1.52-.94-2.27-.38-1.43-.97-2.77-1.68-4.05-3.16-8.31-7.77-16.05-13.56-22.83,.23-1.02,.22-2.02-.34-2.74-.31-.4-.71-.57-1.14-.67-.14-.39-.44-.74-.96-.91-1.62-.57-3.23-1.17-4.82-1.8-3.11-1.56-5.97-3.67-8.95-5.44-4.8-2.84-9.9-5.17-15.18-7-.25-.09-.47-.1-.68-.07-.5-.15-1.07-.1-1.51,.28-.45,.39-.9,.78-1.35,1.17-.12,.07-.25,.16-.36,.28-1.64,1.71-3.11,3.62-4.35,5.66-3.62,4.15-4.87,10.35-4.3,15.66,.4,3.72,1.62,7.58,4.01,10.41,.78,1.14,1.66,2.2,2.66,3.15,.43,.49,.87,.98,1.32,1.44,2.32,2.35,4.97,4.41,7.81,6.11,.7,.49,1.43,.96,2.16,1.41,.1,.11,.22,.22,.36,.3,4.71,2.81,8.96,6.62,11.87,11.21,2.2,5.29,2.05,11.26,1.43,16.92-.81,7.47-2.08,14.91-3.15,22.34-.15,1.06,.52,1.93,1.57,1.87,.01,0,.02,.01,.03,.02,.38,.19,.83,.24,1.29,.27,.35,.2,.75,.24,1.16,.24,.4,.04,.8,.09,1.19,.13,.11,.03,.22,.07,.34,.08,.32,.03,.63,.04,.95,.06,.17,.02,.34,.04,.52,.06,.07,0,.12-.01,.18-.01,.63,.03,1.26,.04,1.89,.04,1.38,.11,2.76,.19,4.13,.26,5.38,.29,10.78,.31,16.17,.08,.3-.01,.56-.11,.78-.25,.14-.03,.28-.05,.42-.1,.22-.07,.38-.18,.53-.3,.37-3.07,.25-6.21,.3-9.31,.08-4.71,.6-9.41,.95-14.12,.21-2.8,.41-5.61,.59-8.42,.07-2.97,.12-5.93,.14-8.9-.32-3.34-.76-6.66-1.39-9.95Z"/>
      <path d="M232.09,339.36c-.05-.19-.14-.38-.22-.56-.01-.03-.03-.05-.04-.07-.18-.68-.54-1.33-1.04-1.86-1.13-1.19-2.82-1.7-4.4-1.93-.92-.13-1.84-.19-2.77-.1-.79,.07-1.77,.42-2.56,.23-.71-.17-1-1.29-1.13-2.15l-.02-2.46c0-.84-.68-1.47-1.5-1.5-2.79-.12-5.59-.11-8.38,.03-.47,.02-.87,.24-1.14,.58-.08,.04-.14,.09-.21,.14-.19,.64-.4,1.27-.62,1.9-.45,1.21-.71,2.44-.87,3.74-.16,1.3-.3,2.65-.25,3.97,.06,1.41,.41,2.93,1.42,3.97,.24,.24,.5,.41,.77,.54,.07,.07,.13,.14,.2,.21,.92,.43,1.95,.44,2.94,.41,.77-.02,1.55-.07,2.32-.12,2.99,.19,6.02,.03,9.01-.11,1.32-.06,2.65-.1,3.97-.18,.93-.06,1.88-.16,2.71-.61,.06-.03,.12-.07,.18-.11,.09-.04,.19-.08,.29-.13,.48-.23,.93-.7,1.15-1.19,.12-.28,.23-.53,.28-.83,.05-.3,.09-.59,.07-.89-.02-.3-.05-.6-.13-.89Z"/>
      <path d="M142.29,312.49c-1.51-1.76-3.01-3.48-2.43-5.98,.14-.6,.38-1.13,.55-1.66,.41-.39,.6-.97,.24-1.57l-.3-.5c-.39-.94-1-1.85-1.62-2.69-.71-1.18-1.42-2.35-2.12-3.53-.14-.24-.32-.43-.53-.59-.29-.28-.69-.46-1.2-.41-2.53,.26-5.54,.86-7.59,2.48-.5,.26-.99,.57-1.42,.94-.14,.1-.27,.2-.4,.3-.61,.28-1.16,.64-1.43,1.31-.16,.4-.16,.81-.08,1.21,0,0,0,.01,0,.02,0,.02,0,.03,.01,.05,.01,.06,.03,.11,.04,.17,.41,1.85,1.29,3.57,2.36,5.13,.17,.28,.34,.56,.51,.83,1.36,2.12,2.79,4.19,4.19,6.29,2.16,3.24,5.02,7.71,9.49,7.45,2.03-.12,3.69-1.63,3.91-3.68,.23-2.14-.85-4.01-2.19-5.57Z"/>
      <path class="cls-14" d="M258.95,180.76c-2.43-2.19-5.12-4.34-8.45-4.84-.46-.07-.94-.11-1.42-.13-2.39-.25-4.88,.29-6.84,1.71-1.58,1.14-2.71,2.73-3.15,4.52-.06,.13-.13,.26-.18,.4-.2,.55-.3,1.17-.26,1.75,0,.1,.02,.19,.04,.29-.11,1.93,.97,3.85,3.13,4.15,1.27,.17,2.44-.38,3.24-1.36,.6-.74,.97-1.82,1.77-2.37,.88-.61,2.18-.49,3.19-.46,.78,.02,1.55,.04,2.33,.06,.74,.21,1.48,.39,2.24,.54,1.7,.33,3.97,.83,4.75-1.24,.03-.07,.03-.14,.05-.21,.59-.81,.47-2-.44-2.81Z"/>
      <line class="cls-1" x1="196.33" y1="154.78" x2="129.33" y2="62.78"/>
      <line class="cls-1" x1="115.33" y1="200.78" x2="64.33" y2="130.78"/>
      <line class="cls-1" x1="205.33" y1="134.78" x2="154.33" y2="64.78"/>
      <polygon class="cls-4" points="306.93 138.37 306.87 138.42 306.77 138.4 306.79 138.3 295.4 136.08 284.06 133.88 283.79 133.82 283.68 133.8 283.57 133.78 283.68 133.7 283.35 133.25 281.3 130.44 304.43 134.94 306.93 138.37"/>
      <polygon class="cls-10" points="306.93 138.37 306.87 138.42 306.77 138.4 306.79 138.3 295.4 136.08 284.06 133.88 283.79 133.82 283.68 133.8 283.57 133.78 283.68 133.7 283.35 133.25 281.3 130.44 304.43 134.94 306.93 138.37"/>
      <polygon class="cls-10" points="283.68 133.7 283.57 133.78 283.46 133.86 265.01 147.34 126.41 248.59 116.61 255.75 116.6 255.75 96.24 270.63 96.09 270.74 96.02 270.64 96.01 270.63 93.78 267.57 281.37 130.54 283.35 133.25 283.68 133.7"/>
      <polygon class="cls-9" points="281.59 130.84 94.03 267.85 87.33 258.67 274.89 121.66 281.3 130.44 281.59 130.84"/>
      <path class="cls-6" d="M171.59,190.12c0-.49-.19-1-.61-1.25,.08-.11,.17-.21,.22-.35,.17-.43,.14-1.02-.13-1.44,.15-.3,.22-.64,.18-.93-.09-.62-.49-1.03-1.07-1.25-1.86-.7-3.87-.3-5.73-.64-.45-.08-.79-.22-1.11-.4-.27-.25-.55-.48-.86-.67-.02-.02-.04-.03-.06-.05-.81-.73-1.75-1.39-2.9-1.34-.79,.03-1.5,.57-1.74,1.32-.12,.37-.12,.72-.09,1.07-.63,.36-1.2,.78-1.42,1.58-.36,1.25,.34,2.55,1.41,3.19,.13,.08,.28,.14,.43,.21,1.08,1.33,3.02,1.86,4.62,2.32,2.65,.76,5.39,1.22,8.14,1.43,1.58,.12,1.94-2.12,.73-2.8Z"/>
      <path class="cls-15" d="M237.95,196.83c0-1.08-.08-2.17-.28-3.24-.03-.17-.12-.34-.24-.48-.12-.24-.32-.46-.63-.62-.83-.43-1.54-.97-2.07-1.76-.47-.7-.74-1.49-1.41-2.04-.78-.65-1.72-.65-2.69-.65-1.16,0-2.32,.02-3.48,.04l-13.92,.15c-3.57,.04-7.15,.07-10.72,.11-10.25-.66-20.46-1.86-30.59-3.61-.29-.05-.55-.02-.79,.06-.73-.16-1.61,.36-1.77,1.08-.68,3.09-.92,6.76,2.17,8.62,1.72,1.03,3.77,1.7,5.62,2.45,1.94,.79,3.89,1.53,5.86,2.21,6.97,2.42,14.22,4.1,21.59,4.5-3.39,2.82-6.55,5.89-9.46,9.19-3,2.9-5.82,6-8.39,9.3-.45,.58-.7,1.58,0,2.12,.59,.46,1.2,.82,1.83,1.12,.11,.16,.26,.32,.46,.43,3.04,1.72,6.12,3.35,9.25,4.88,3.56,1.91,7.16,3.74,10.81,5.46,3.64,1.72,7.33,3.34,11.05,4.88,.94,.39,1.88,.77,2.82,1.14,.68,.27,1.46,.72,2.21,.7,.96,.33,2.1,.14,2.94-.68,.71-.69,1.05-1.61,1.41-2.5,.44-1.11,.86-2.22,1.25-3.34,.01-.03,.02-.07,.03-.1,.24-.6,.46-1.2,.67-1.8,.7-2.03,1.39-4.07,2.02-6.13,2.54-8.33,3.52-16.97,4.21-25.62,.13-1.59,.43-3.84,.23-5.85Z"/>
      <path class="cls-15" d="M39.33,330.78c0-5.52,4.48-10,10-10,0,5.52-4.48,10-10,10Z"/>
      <path class="cls-15" d="M27.33,328.78h0c4.97,0,9,4.03,9,9h0c-4.97,0-9-4.03-9-9h0Z"/>
      <line class="cls-3" x1="37.83" y1="328.78" x2="37.83" y2="341.78"/>
      <path class="cls-15" d="M278.33,334.78c0-5.52-4.48-10-10-10,0,5.52,4.48,10,10,10Z"/>
      <path class="cls-15" d="M290.33,332.78h0c0,4.97-4.03,9-9,9h0c0-4.97,4.03-9,9-9Z" transform="translate(571.66 674.55) rotate(180)"/>
      <line class="cls-3" x1="279.83" y1="330.28" x2="279.83" y2="349.78"/>
    </g>
  </g>
</svg>