<?xml version="1.0" encoding="UTF-8"?>
<svg id="Lag_2" data-name="Lag 2" xmlns="http://www.w3.org/2000/svg" viewBox="0 0 316.6 283.7">
  <defs>
    <style>
      .cls-1 {
        fill: #fff;
      }

      .cls-2 {
        fill: #fed5c5;
      }

      .cls-3, .cls-4 {
        fill: #8a8a8a;
      }

      .cls-5, .cls-6 {
        fill: #e1e1e1;
      }

      .cls-7, .cls-8 {
        fill: #18372e;
      }

      .cls-9 {
        fill: #24dd74;
      }

      .cls-8 {
        opacity: .16;
      }

      .cls-10 {
        fill: none;
        stroke: #24dd74;
        stroke-miterlimit: 10;
      }

      .cls-11 {
        opacity: .58;
      }

      .cls-4 {
        opacity: .54;
      }

      .cls-6 {
        opacity: .36;
      }
    </style>
  </defs>
  <g id="Lag_1-2" data-name="Lag 1">
    <g>
      <path class="cls-2" d="M184.42,202.48c-5.34-.12-10.67-.02-16,.3-1.75,.1-1.96,2.34-.4,2.95,.08,.03,.17,.06,.26,.09,0,.04,0,.08,0,.13-.26,.33-.38,.75-.33,1.15-.13,.28-.18,.6-.14,.91-.41,.62-.42,1.5,.13,1.97,.05,.82,.71,1.32,1.49,1.4,4.17,.45,8.37,.58,12.56,.36,.81-.04,1.5-.66,1.5-1.5,0-.24-.05-.45-.14-.63,.74-.52,.81-1.67,.21-2.3,.29-.59,.19-1.37-.3-1.84,.39,0,.77,0,1.16,.01,1.93,.04,1.93-2.96,0-3Z"/>
      <path class="cls-6" d="M300.27,274.33c-.08,0-.16,.01-.23,.02-1.62-.52-3.4-.44-5.13-.29-14.71-.17-29.42-.63-44.12-1.4-1.19-.06-1.64,1.06-1.36,1.95-.32,.05-.64,.09-.95,.14-.83,.14-1.12,.78-1.06,1.42-4.62,.29-9.23,.84-13.81,1.63-.47,.08-.77,.36-.93,.72-.27-.22-.62-.36-.97-.4-3.46-.34-6.93-.66-10.4-.97-.24-.3-.61-.52-1.1-.54-3.42-.18-6.85-.37-10.27-.55-.13-.04-.27-.07-.42-.08-2.08-.11-4.16-.2-6.24-.27-.78-.04-1.56-.08-2.34-.12-.17,0-.33,.01-.47,.05-3.31-.09-6.62-.14-9.93-.14-.04-.06-.07-.13-.12-.19,0-.73-.47-1.4-1.43-1.32-.8,.07-1.6,.1-2.4,.15-.24-.25-.59-.42-1.06-.42h-.04c0-.75-.48-1.54-1.44-1.59-.97-.06-1.94-.12-2.91-.18-.24-.26-.6-.44-1.08-.47-9.39-.64-18.8-.71-28.19-.25-16.1-.52-32.21-.45-48.3,.21-.07,0-.13,.02-.2,.03-6.31-.02-12.61,.13-18.91,.45-18.36-.65-36.76,.22-54.97,2.65-3.37,.45-6.73,.98-10.08,1.54-3.1,.28-6.21,.4-9.33,.37-2.88-.04-5.75-.08-8.63-.13-1.93-.03-1.93,2.97,0,3,3.53,.06,7.05,.12,10.58,.17,.02,.03,.05,.05,.08,.08,1.15-.02,2.31,.03,3.45,.18,.38-.06,.76-.13,1.14-.2,6.64,.08,13.28,.1,19.91,0,14.43,.66,28.85,2.56,43.29,2.79,.14,.05,.29,.09,.45,.1,11.11,.61,22.25,.72,33.37,.35,.13,.03,.27,.06,.43,.06,.57-.05,1.15-.09,1.72-.14,1.14-.04,2.27-.09,3.41-.14,13.65,.31,27.31,.24,40.96,.03,5.08-.08,10.17-.17,15.25-.27,3.14,.08,6.28,.14,9.42,.16,.22,0,.42-.04,.59-.11,1.85,.03,3.71,.06,5.56,.09,10.98,.41,21.97,.41,32.96,.28,17.76,.94,35.48-.96,53.1-3.04,.46,.03,.92,.04,1.38,.08,1.98-.19,3.96-.37,5.94-.51,2.03,.03,4.06,.05,6.09,.04,2.58-.01,5.25,.03,7.8-.33,1.7-.24,3.52-1.22,3.44-3.17-.03-.76-.66-1.57-1.5-1.5Z"/>
      <path class="cls-7" d="M227.86,238.59c-2.21,.67-1.91-4.17-1.94-5.32-.08-2.62-.16-5.24-.24-7.86-.03-.89-.66-1.37-1.33-1.43-.02,0-.04-.02-.06-.02-.13-.1-.29-.19-.48-.25-.14-.04-.28-.08-.41-.12-.15-.18-.34-.33-.57-.43-2.07-.86-4.26-1.31-6.48-1.4-3.67-.75-7.39-1.2-11.13-1.35-.05,0-.1-.01-.16-.02,.01-.5-.19-.98-.71-1.22-2.47-1.17-5.05-1.79-7.75-1.8-.47-.14-.94-.27-1.4-.41-.76-.22-1.64-.55-2.42-.38-.87-.49-2.21-.07-2.18,1.25,.28,11.8,.38,23.61,.29,35.42,0,1.14,.99,1.6,1.81,1.4,.27,.4,.75,.65,1.23,.7,1.51,.16,3.02,.2,4.52,.19,.2,.04,.41,.04,.61,0,7.48-.18,14.88-2.05,22.39-1.94,.5,0,1.01,.01,1.52,0,.68,1.12,2.01,1.76,3.53,.87,1.22-.72,1.64-2.2,1.14-3.46,.38-.95,.41-2.06,0-2.99-.06-.14-.14-.27-.22-.4,.64-2.42,1.37-4.81,2.22-7.17,.39-1.09-.79-2.15-1.78-1.85Z"/>
      <path class="cls-11" d="M225.92,233.26c-.08-2.62-.16-5.24-.24-7.86-.03-.89-.66-1.37-1.33-1.43-.02,0-.04-.02-.06-.02-.13-.1-.29-.19-.48-.25-.14-.04-.28-.08-.41-.12-.15-.18-.34-.33-.57-.43-.88-.36-1.78-.64-2.69-.86-.17,.01-.34,.03-.51,.04-4.43-.86-9.23-.26-13.76,.03-2.17-.11-4.32-.31-6.47-.6-.2-.46-.62-.82-1.26-.88-2.1-.17-4.2-.34-6.3-.52-.5-.04-.87,.18-1.11,.53-.02,0-.04,0-.07,0,.08,3.85,.14,7.69,.18,11.54l5.73,.06c6.17,1.13,12.04,3.7,17.48,6.93,1.71,1.01,3.38,2.09,5.01,3.22,1.35,.93,2.99,2.65,4.77,2.26,1.86-.41,2.18-2.48,2.57-4.08,.19-.77,.38-1.53,.57-2.3-1.24-.72-1.04-4.28-1.06-5.24Z"/>
      <path class="cls-7" d="M266.82,214.94c-.05-.75-.14-1.54-.34-2.27,.02-.14,.03-.28,.01-.44-.52-3.61-3.31-6.59-6.13-8.69-2.83-2.11-6.18-3.5-9.58-4.38-3.91-1.01-7.95-1.4-11.96-1.78-2.79-.26-5.57-.45-8.34-.34-9.77-.44-19.55-.57-29.32-.38-5.77,.11-11.53,.33-17.29,.65-.15,0-.3,.04-.43,.09-.09,0-.16,.04-.24,.06-.11,0-.23,0-.34,.02-.2,0-.39,.07-.56,.18l-.3,.23c-.19,.19-.31,.41-.39,.66v.03c-.12,.2-.19,.44-.18,.71,0,.05,0,.09,0,.14-.02,.09-.03,.18-.03,.28-.21,6.84-.11,13.68,.25,20.51-.02,.11-.03,.22-.02,.33,.01,.14,.02,.28,.03,.42,0,.06-.01,.12-.02,.17,.01,0,.02,.02,.03,.03,.02,.29,.05,.58,.07,.86,.05,.65,.03,1.36,.44,1.9,.55,.71,1.51,.82,2.43,.72,1.78,.11,3.56,.17,5.35,.16,4.46,.19,8.92,.28,13.33,.53,7.58,.42,15.17,.78,22.76,1.18,.53,.41,1.14,.69,1.7,1.08,.02,.01,.01,0,.02,.01,.01,.01,.02,.02,.05,.06,.06,.06,.13,.13,.19,.19,.04,.04,.08,.09,.11,.13,0,0,.09,.12,.11,.15,.11,.17,.22,.35,.31,.53,.15,.69,.21,1.41,.23,2.06,.07,2.3,.01,4.61-.13,6.91-.19,3.19-.64,6.39-1.51,9.47-.1,.26-.2,.53-.32,.79-.07,.16-.11,.33-.13,.5-.69,.7-1.17,1.55-1.43,2.52-.2,.76,.21,1.48,.88,1.77,.53,.55,1.39,.75,1.94,.21,.23,.17,.53,.27,.92,.24,.54-.04,1.07-.07,1.61-.11,.41,.14,.89,.13,1.29-.09,.44-.03,.88-.06,1.31-.09,.66,.78,2.16,.84,2.55-.18,6.84-.47,13.67-.95,20.51-1.42,.52-.04,1-.3,1.27-.71,.5,.68,1.46,.98,2.13,.14,2.02-2.51,3.09-5.73,4.08-8.76,1.07-3.29,1.86-6.67,2.37-10.1,.57-3.86,.79-7.74,.66-11.61,.1-1.75,.12-3.51,0-5.27Z"/>
      <path class="cls-2" d="M242.45,217.47c-1.33-3.33-2.11-6.8-2.34-10.35,0-.59-.01-1.19-.06-1.77,0-.28-.01-.55,0-.83,0-.27-.08-.52-.21-.75-.38-1.8-1.21-3.39-2.95-4.4-.99-.57-2.24,.16-2.26,1.3-.03,2.64-.07,5.29-.1,7.93-.67,.8-.79,2,.07,2.99,.58,.67,1.52,.47,2.12,0-.39,.3-.19-.02,.06,.46,.22,.43,.26,.97,.34,1.44,.21,1.3,.41,2.61,.62,3.92,.04,.25,.15,.45,.29,.61,0,0,0,.02,0,.03,.19,.97,1.25,1.24,2.05,.95,.35,.31,.82,.46,1.34,.32,.71-.2,1.35-1.09,1.05-1.85Z"/>
      <path class="cls-9" d="M263.61,258.95c-.64-1.51-1.28-3.02-1.92-4.53-1.27-3-2.56-6-3.86-8.99-1.88-4.3-3.8-8.58-5.82-12.82-1.52-4.09-3.33-8.06-5.37-11.91-.39-1.3-.78-2.6-1.18-3.89-.23-.75-.59-1.39-1.34-1.72-.25-.11-.53-.17-.81-.22-.24-.16-.53-.26-.84-.27-.25-.01-.5,0-.75-.01-.2-.04-.41-.05-.6,0-1.74-.04-3.47-.01-5.21,.13-.61,.05-1.33,.43-1.45,1.1-.14,.8-.22,1.62-.14,2.43-.04,0-.08,0-.11,0,0,.54,0,1.08,.01,1.63,.03,1.38,.1,2.78,.27,4.16,.07,2.08,.27,4.16,.55,6.23,.52,3.79,1.29,7.55,1.87,11.33,.08,2.96,.25,5.93,.54,8.88,.07,.67,.46,1.09,.93,1.3,.11,.06,.23,.11,.36,.14,.03,.55,.34,1.1,1.02,1.36,6.76,2.57,13.07,6.32,18.57,11.02,.33,.28,.76,.39,1.17,.36,.2,.21,.42,.4,.67,.56,2.17,1.39,4.52-.29,4.48-2.71-.02-1.26-.57-2.4-1.05-3.53Z"/>
      <path class="cls-8" d="M250.19,249.47c-2.75-2.29-5.27-4.82-7.65-7.48-2.78-3.29-5.31-6.79-7.57-10.47,.03,.24,.05,.48,.08,.71,.52,3.79,1.29,7.55,1.87,11.33,.08,2.96,.25,5.93,.54,8.88,.07,.67,.46,1.09,.93,1.3,.11,.06,.23,.11,.36,.14,.03,.55,.34,1.1,1.02,1.36,3.69,1.4,7.24,3.17,10.6,5.23,.42,.16,.83,.3,1.25,.47,4.03,1.62,7.95,3.49,11.88,5.35,.2,.09,.4,.14,.59,.15,.37-.54,.59-1.22,.58-1.97-.02-1.26-.57-2.4-1.05-3.53-.13-.32-.27-.63-.4-.95-3.79-4.08-8.73-6.96-13.02-10.53Z"/>
      <path class="cls-9" d="M260.77,256.48c-1.04-.82-2.15-1.44-3.31-1.93-2.31-1.26-4.76-2.24-7.29-2.92-1.61-.51-3.28-.85-4.94-1.08-2.64-.36-5.31-.57-7.98-.69-15.04-2.61-30.44-.36-45.35,2.33-3.05,.55-8.7,.72-9.42,4.62-.15,.82,.39,2.01,1.45,1.87,.16-.02,.31-.04,.47-.06,.12,.05,.25,.08,.4,.09,.14,.06,.29,.11,.45,.12,.26,.02,.52,.03,.78,.05,.86,2.59,3.08,4.45,5.66,5.03,.61,.28,1.26,.5,1.92,.69,.66,1.15,2.03,1.87,3.36,2.31-.92,.78-.63,2.52,.93,2.6,.26,.01,.51,.02,.77,.04-.77,.64-.64,2.18,.38,2.52-.23,.49-.21,1.06,.17,1.46-.96,.59-1.05,2.15,.35,2.65,5.05,1.82,10.41,2.75,15.78,2.77,.18,.1,.39,.18,.64,.2l1.47,.12c.21,.02,.41-.01,.58-.08,11.23,.24,22.6,.29,33.54-2.49,4.87-1.24,10.26-3.25,12.56-8.05,2.11-4.4,.36-9.22-3.36-12.17Z"/>
      <path class="cls-8" d="M199.21,250.93c-2.45,.4-4.89,.82-7.31,1.26-2.96,.53-8.35,.72-9.33,4.29,10.74,2.63,21.02,6.93,30.44,12.78,.74,.46,1.77,.1,2.12-.68,1.1-.43,1.45-1.94,.28-2.68-3.4-2.17-6.8-4.35-10.2-6.52-2.67-1.71-6.81-4.16-6.03-7.96,.03-.16,.04-.33,.02-.49Z"/>
      <path class="cls-2" d="M231.62,275.66c-.15-1.12-1.16-1.88-2.26-1.3-1.41,.76-2.99,1.19-4.59,1.28,.51-.91,.11-2.32-1.23-2.26-2.83,.13-5.65,.27-8.48,.4-.86,.04-1.43,.66-1.5,1.5-.15,1.84,1.59,2.94,3.14,3.41,1.92,.58,3.95,.89,5.94,1.07,1.83,.17,3.83,.31,5.65-.09,1.81-.4,3.59-2.01,3.32-4.02Z"/>
      <path class="cls-9" d="M216.25,271.38c-.16-.31-.39-.56-.64-.77-.08-.11-.15-.22-.24-.32-.7-.77-1.71-1.32-2.56-1.91-.9-.62-1.81-1.23-2.72-1.83-1.89-1.24-3.8-2.45-5.74-3.62-3.87-2.34-7.83-4.53-11.87-6.57-1.56-.78-3.24-1.64-4.97-2.23-2.48-1.14-5.21-1.73-7.95-1.57-4.82,.28-9.77,3.23-10.2,8.46-.41,5.09,4.64,9,8.62,11.18,4.46,2.44,9.48,3.63,14.48,4.31,6.74,.91,13.6,.95,20.25,2.51,.23,.05,.47,.03,.69-.03,.72,.04,1.28-.4,1.55-1.09,.26-.67,.53-1.34,.79-2.01,.25-.64,.56-1.29,.73-1.96,.23-.87,.19-1.75-.23-2.56Z"/>
      <path class="cls-2" d="M236.22,260.28c-.32-.99-.77-1.95-1.46-2.74-.77-.89-1.79-1.4-2.85-1.84-1.1-.46-2.22-.9-3.33-1.35-1.21-.49-2.45-1.11-3.79-1-.33,.03-.64,.1-.94,.21-.82,.22-1.55,.69-2.19,1.34-.18,.18-.35,.37-.53,.56-.7,.34-1.44,.61-2.13,.96-1.82,.91-3.58,2.79-3.19,4.94-.06,1.43,.19,3.01,1.33,3.75,.76,.49,1.71,.49,2.58,.56,1.05,.09,2.1,.16,3.16,.2,4.08,.16,8.15-.12,12.18-.72,.47-.07,.96-.59,1.05-1.05,.11-.56,.08-1.01-.09-1.5,.46-.6,.48-1.47,.2-2.33Z"/>
      <path class="cls-7" d="M237.51,264.19c-.15-1.28-.83-2.17-1.97-2.82-1.39-.8-2.89-1.53-4.46-1.99-.45-.22-.9-.43-1.35-.63-1.56-.7-3.14-1.2-4.87-.97-1.59,.22-3.05,.93-4.43,1.71-.6,.33-1.19,.69-1.76,1.06-.55,.33-1.09,.68-1.61,1.05-.15,.06-.3,.13-.43,.21-.17,.06-.34,.12-.51,.22-1.68,.99-1.62,3.48-1.43,5.15,.09,.73,.29,1.45,.63,2.08,.15,.87,.89,1.65,1.58,2.28,.67,.61,1.4,1.19,2.2,1.66,.73,.55,1.52,1.03,2.34,1.38,.62,.55,1.39,.85,2.38,.93,.95,.08,1.94,.09,2.92,.02,.15,.06,.32,.1,.49,.12,2.46,.26,4.73-.85,6.62-2.27,.88-.66,1.75-1.39,2.45-2.24,.83-1,1.1-2.12,1.2-3.38,.1-1.18,.15-2.41,.01-3.59Z"/>
      <path d="M170.75,203.55c-.03-.38-.18-.68-.39-.91v-.03c-.07-.25-.2-.47-.39-.66-.1-.08-.2-.16-.3-.23-.14-.08-.28-.13-.43-.16-.21-.17-.47-.28-.74-.31-.49-.2-1.02-.32-1.55-.44-1.15-.26-2.12-.88-2.81-1.74-.31-1.05-.36-2.16-.37-3.29-.02-1.75-.01-3.68-.88-5.26-.3-.55-.72-.99-1.21-1.31-.04-.05-.08-.1-.13-.14-.74-.64-1.61-.91-2.57-1-.82-.08-1.73,.07-2.44,.5-.17,.1-.31,.23-.45,.35-.93,.53-1.53,1.44-1.67,2.72-.23,2.06-.11,4.2-.15,6.28-.04,2.11-.07,4.22-.11,6.33-.03,1.95-.28,4.08,.43,5.94,.67,1.73,2.2,2.99,4.09,3,.23,0,.42-.05,.59-.13,.27,0,.55,0,.82-.02,.07,0,.15,0,.22-.01,1.18-.07,2.37-.14,3.55-.21,1.18-.07,2.37-.14,3.55-.21,.75-.04,1.63,.01,2.36-.21,.01,0,.03,0,.04,0,.77,.08,1.56-.76,1.5-1.5-.19-2.45-.37-4.89-.56-7.34Z"/>
      <rect class="cls-4" x="51.01" width="265.59" height="187.33" rx="61.1" ry="61.1"/>
      <rect class="cls-3" x="70.98" y="186.44" width="20.94" height="24.24"/>
      <path class="cls-3" d="M85.31,205.16v-24.24h50.38l-41.34,28.94c-3.8,2.66-9.03-.06-9.03-4.7Z"/>
      <path class="cls-5" d="M66.57,205.16v-24.24h50.38l-41.34,28.94c-3.8,2.66-9.03-.06-9.03-4.7Z"/>
      <rect class="cls-5" x="35.6" width="265.59" height="187.33" rx="61.11" ry="61.11"/>
      <circle class="cls-1" cx="97.31" cy="92.56" r="23.14"/>
      <circle class="cls-6" cx="97.31" cy="92.56" r="23.14"/>
      <path class="cls-1" d="M98.4,69.48c-7.81,3.72-13.22,11.66-13.22,20.88,0,12.41,9.78,22.51,22.04,23.09,7.81-3.72,13.22-11.66,13.22-20.88,0-12.41-9.78-22.51-22.04-23.09Z"/>
      <circle class="cls-1" cx="166.73" cy="93.67" r="23.14"/>
      <circle class="cls-6" cx="166.73" cy="93.67" r="23.14"/>
      <path class="cls-1" d="M167.83,70.58c-7.81,3.72-13.22,11.66-13.22,20.88,0,12.41,9.78,22.51,22.04,23.09,7.81-3.72,13.22-11.66,13.22-20.88,0-12.41-9.78-22.51-22.04-23.09Z"/>
      <circle class="cls-1" cx="235.05" cy="93.67" r="23.14"/>
      <circle class="cls-6" cx="235.05" cy="93.67" r="23.14"/>
      <path class="cls-1" d="M236.15,70.58c-7.81,3.72-13.22,11.66-13.22,20.88,0,12.41,9.78,22.51,22.04,23.09,7.81-3.72,13.22-11.66,13.22-20.88,0-12.41-9.78-22.51-22.04-23.09Z"/>
      <path class="cls-3" d="M237.47,183.58c0-.79-.69-1.53-1.5-1.5-3.95,.17-7.91,.15-11.86-.05-.64-.03-1.07,.28-1.28,.71-.22,.24-.37,.56-.36,.99,.05,2.53,.09,5.06,.14,7.6l-.2,16c0,.69,.38,1.14,.87,1.33,.23,.2,.54,.33,.94,.33,3.88,.01,7.76,.03,11.64,.04,1.17,0,1.63-1.1,1.38-1.96,.08-7.83,.16-15.66,.23-23.49Z"/>
      <rect class="cls-1" x="225.6" y="184.7" width="9" height="21"/>
      <path class="cls-5" d="M232.41,189.67c0-.21-.04-.4-.13-.58-.06-.19-.16-.35-.31-.48l-.3-.23c-.23-.14-.49-.2-.76-.2-.24-.01-.47-.03-.71-.04-.24-.01-.46,0-.7,.05-.14,.03-.27,.1-.4,.16-.01,0-.02,.01-.03,.02l-.3,.23c-.12,.11-.22,.24-.3,.39,0,0,0,.01,0,.02l-.12,.16c-.14,.23-.2,.49-.2,.76-.02,.14-.02,.28-.02,.41,0,.06,0,.13,.01,.19,0,.01,0,.02,0,.03,0,.05,0,.1,0,.15,0,.01-.01,.02-.02,.04-.09,.18-.14,.37-.13,.58,.02,.39,.14,.79,.44,1.06,.3,.27,.65,.43,1.06,.44,.49,.01,.99,.03,1.48,.04,.21,0,.4-.04,.58-.13,.19-.06,.35-.16,.48-.31,.26-.29,.45-.66,.44-1.06l-.05-1.68Z"/>
      <path class="cls-5" d="M232.26,195.88c-.05-.31-.25-.63-.46-.85-.11-.12-.25-.22-.39-.3-.11-.06-.27-.13-.39-.16-.03,0-.06-.02-.09-.02-.37-.08-.71-.05-1.08-.03-.12,0-.24,.01-.37,.02-.17,.01-.35,.03-.51,.07-.26,.08-.57,.24-.75,.45-.21,.23-.31,.42-.42,.71-.04,.1-.04,.2-.06,.31-.02,.18-.04,.36-.04,.54,0,.26-.02,.53-.03,.79-.02,.47-.05,.97,.22,1.39,.16,.25,.35,.44,.6,.59,.27,.17,.54,.19,.85,.23,.14,.01,.28,.02,.43,.03,.3,0,.6-.01,.89-.05,.21,0,.4-.04,.58-.13,.19-.06,.35-.16,.48-.31,.15-.14,.25-.3,.31-.48,.07-.13,.1-.27,.11-.42,.06-.17,.11-.34,.12-.53,.01-.26,.02-.52,.03-.79l.02-.37c.01-.24-.01-.43-.05-.68Z"/>
      <path class="cls-5" d="M232.25,202.38c-.05-.12-.1-.24-.15-.36-.13-.23-.31-.4-.54-.54l-.36-.15c-.27-.07-.53-.07-.8,0-.02,0-.04,0-.07,.01-.06,0-.13,0-.19,0-.08-.02-.17-.03-.25-.06-.2-.06-.4-.07-.6-.03-.2,0-.39,.07-.56,.18-.17,.09-.32,.22-.42,.39-.13,.14-.22,.31-.27,.51-.02,.13-.04,.27-.05,.4,0,.27,.07,.52,.2,.76,.08,.1,.16,.2,.23,.3,.19,.19,.41,.31,.66,.39,.11,.04,.22,.08,.33,.1,.23,.05,.47,.08,.71,.09,.11,0,.22,0,.34-.01,.24-.03,.48-.05,.72-.12,.2-.05,.37-.14,.51-.27,.16-.11,.29-.25,.39-.42,.11-.17,.17-.36,.18-.56,.04-.2,.04-.4-.03-.6Z"/>
      <path class="cls-9" d="M98.6,264.7c0-5.52-4.48-10-10-10,0,5.52,4.48,10,10,10Z"/>
      <path class="cls-9" d="M110.6,262.7h0c0,4.97-4.03,9-9,9h0c0-4.97,4.03-9,9-9Z" transform="translate(212.19 534.4) rotate(180)"/>
      <line class="cls-10" x1="100.1" y1="262.7" x2="100.1" y2="275.7"/>
      <path class="cls-9" d="M290.6,268.7c0-5.52,4.48-10,10-10,0,5.52-4.48,10-10,10Z"/>
      <path class="cls-9" d="M278.6,266.7h0c4.97,0,9,4.03,9,9h0c-4.97,0-9-4.03-9-9h0Z"/>
      <line class="cls-10" x1="289.1" y1="264.2" x2="289.1" y2="283.7"/>
    </g>
  </g>
</svg>