<?xml version="1.0" encoding="UTF-8"?><svg id="Layer_2" xmlns="http://www.w3.org/2000/svg" viewBox="0 0 1173.14 68.14"><defs><style>.cls-1{fill:#26e77b;stroke:#26e77b;stroke-miterlimit:10;}</style></defs><g id="Lag_1"><g><path class="cls-1" d="M1144.01,29.14c0-15.82,12.82-28.64,28.64-28.64,0,15.82-12.82,28.64-28.64,28.64Z"/><line class="cls-1" x1="1139.71" y1="23.41" x2="1139.71" y2="68.14"/><path class="cls-1" d="M387.58,52.87c0-5.52-4.48-10-10-10,0,5.52,4.48,10,10,10Z"/><path class="cls-1" d="M399.58,50.87h0c0,4.97-4.03,9-9,9h0c0-4.97,4.03-9,9-9Z" transform="translate(790.15 110.74) rotate(-180)"/><line class="cls-1" x1="389.08" y1="48.37" x2="389.08" y2="67.87"/><path class="cls-1" d="M13.36,53.49c0-7.1-5.76-12.86-12.86-12.86,0,7.1,5.76,12.86,12.86,12.86Z"/><path class="cls-1" d="M26.21,50.92h2.57v2.57c0,4.97-4.03,9-9,9h-2.57v-2.57c0-4.97,4.03-9,9-9Z" transform="translate(46 113.42) rotate(180)"/><line class="cls-1" x1="15.29" y1="50.92" x2="15.29" y2="67.64"/><path class="cls-1" d="M130.42,40.13c0-10.21,8.28-18.49,18.49-18.49,0,10.21-8.28,18.49-18.49,18.49Z"/><line class="cls-1" x1="127.65" y1="31.81" x2="127.65" y2="67.87"/><path class="cls-1" d="M640.61,31.08c0-13.82-11.21-25.03-25.03-25.03,0,13.82,11.21,25.03,25.03,25.03Z"/><line class="cls-1" x1="644.36" y1="19.81" x2="644.36" y2="67.37"/><path class="cls-1" d="M798.58,52.87c0-5.52,4.48-10,10-10,0,5.52-4.48,10-10,10Z"/><path class="cls-1" d="M786.58,50.87h0c4.97,0,9,4.03,9,9h0c-4.97,0-9-4.03-9-9h0Z"/><line class="cls-1" x1="797.08" y1="48.37" x2="797.08" y2="67.87"/><path class="cls-1" d="M124.88,47.43c0-10.21-8.28-18.49-18.49-18.49,0,10.21,8.28,18.49,18.49,18.49Z"/><path class="cls-1" d="M647.84,39.92c0-13.82,11.21-25.03,25.03-25.03,0,13.82-11.21,25.03-25.03,25.03Z"/><path class="cls-1" d="M1135.96,37.94c0-15.82-12.82-28.64-28.64-28.64,0,15.82,12.82,28.64,28.64,28.64Z"/></g></g></svg>