<?xml version="1.0" encoding="UTF-8"?><svg id="Layer_2" xmlns="http://www.w3.org/2000/svg" viewBox="0 0 1172.14 67.64"><defs><style>.cls-1,.cls-2{fill:#18372e;}.cls-2{stroke:#18372e;stroke-miterlimit:10;}</style></defs><g id="Lag_1"><g><path class="cls-1" d="M1143.51,28.64c0-15.82,12.82-28.64,28.64-28.64,0,15.82-12.82,28.64-28.64,28.64Z"/><line class="cls-2" x1="1139.21" y1="22.91" x2="1139.21" y2="67.64"/><path class="cls-1" d="M387.08,52.37c0-5.52-4.48-10-10-10,0,5.52,4.48,10,10,10Z"/><path class="cls-1" d="M399.08,50.37h0c0,4.97-4.03,9-9,9h0c0-4.97,4.03-9,9-9Z" transform="translate(789.15 109.74) rotate(-180)"/><line class="cls-2" x1="388.58" y1="47.87" x2="388.58" y2="67.37"/><path class="cls-1" d="M12.86,52.99c0-7.1-5.76-12.86-12.86-12.86,0,7.1,5.76,12.86,12.86,12.86Z"/><path class="cls-1" d="M25.71,50.42h2.57v2.57c0,4.97-4.03,9-9,9h-2.57v-2.57c0-4.97,4.03-9,9-9Z" transform="translate(45 112.42) rotate(180)"/><line class="cls-2" x1="14.79" y1="50.42" x2="14.79" y2="67.14"/><path class="cls-1" d="M129.92,39.63c0-10.21,8.28-18.49,18.49-18.49,0,10.21-8.28,18.49-18.49,18.49Z"/><line class="cls-2" x1="127.15" y1="31.31" x2="127.15" y2="67.37"/><path class="cls-1" d="M640.11,30.58c0-13.82-11.21-25.03-25.03-25.03,0,13.82,11.21,25.03,25.03,25.03Z"/><line class="cls-2" x1="643.86" y1="19.31" x2="643.86" y2="66.87"/><path class="cls-1" d="M798.08,52.37c0-5.52,4.48-10,10-10,0,5.52-4.48,10-10,10Z"/><path class="cls-1" d="M786.08,50.37h0c4.97,0,9,4.03,9,9h0c-4.97,0-9-4.03-9-9h0Z"/><line class="cls-2" x1="796.58" y1="47.87" x2="796.58" y2="67.37"/><path class="cls-1" d="M124.38,46.93c0-10.21-8.28-18.49-18.49-18.49,0,10.21,8.28,18.49,18.49,18.49Z"/><path class="cls-1" d="M647.34,39.42c0-13.82,11.21-25.03,25.03-25.03,0,13.82-11.21,25.03-25.03,25.03Z"/><path class="cls-1" d="M1135.46,37.44c0-15.82-12.82-28.64-28.64-28.64,0,15.82,12.82,28.64,28.64,28.64Z"/></g></g></svg>