<svg width="125" height="32" viewBox="0 0 125 32" fill="none" xmlns="http://www.w3.org/2000/svg">
<g clip-path="url(#clip0_461_1436)">
<path d="M19.1328 10.8394L8.32454 5.51667C7.95277 5.33333 7.5 5.57905 7.5 5.96275V20.4962C7.5 21.1465 7.89669 21.7456 8.53015 22.0481L19.3509 27.2139C19.7227 27.3916 20.1692 27.1458 20.1692 26.764V12.4196C20.1692 11.7599 19.7725 11.1531 19.1328 10.8394ZM14.9333 20.6569C13.8055 19.6305 13.1077 18.2129 13.1077 16.6479C16.5492 16.6479 19.3385 19.1864 19.3385 22.3184C17.6188 22.3184 16.0611 21.6833 14.9333 20.6569Z" fill="#26E77B"/>
<path d="M33.6753 5.51655L22.867 10.8393C22.2273 11.153 21.8306 11.7598 21.8306 12.4194V26.7639C21.8306 27.1457 22.2771 27.3914 22.6489 27.2138L33.4696 22.0479C34.1031 21.7455 34.4998 21.1463 34.4998 20.4961V5.96263C34.4998 5.57893 34.047 5.33321 33.6753 5.51655ZM27.2742 15.7423C26.1464 16.7687 24.5887 17.4038 22.869 17.4038C22.869 14.2718 25.6583 11.7333 29.0998 11.7333C29.0998 13.2984 28.402 14.716 27.2742 15.7423Z" fill="#26E77B"/>
<path d="M44.9284 22V9.63636H52.9696V11.5138H47.1681V14.8704H52.5531V16.7479H47.1681V20.1225H53.0179V22H44.9284ZM58.0991 22.163C57.3706 22.163 56.7186 21.9759 56.1431 21.6016C55.5676 21.2273 55.1128 20.6839 54.7788 19.9716C54.4447 19.2592 54.2777 18.3939 54.2777 17.3757C54.2777 16.3454 54.4467 15.4761 54.7848 14.7678C55.1269 14.0554 55.5877 13.5181 56.1673 13.1559C56.7468 12.7897 57.3928 12.6065 58.1051 12.6065C58.6484 12.6065 59.0952 12.6991 59.4453 12.8842C59.7955 13.0653 60.0732 13.2847 60.2784 13.5423C60.4837 13.7958 60.6426 14.0353 60.7553 14.2607H60.8459V9.63636H63.0373V22H60.8881V20.5391H60.7553C60.6426 20.7644 60.4796 21.0039 60.2663 21.2575C60.053 21.507 59.7713 21.7203 59.4212 21.8974C59.071 22.0745 58.6303 22.163 58.0991 22.163ZM58.7088 20.37C59.1716 20.37 59.5661 20.2453 59.892 19.9957C60.218 19.7422 60.4656 19.39 60.6346 18.9393C60.8036 18.4885 60.8881 17.9633 60.8881 17.3636C60.8881 16.764 60.8036 16.2428 60.6346 15.8001C60.4696 15.3574 60.2241 15.0133 59.8981 14.7678C59.5761 14.5223 59.1797 14.3995 58.7088 14.3995C58.2218 14.3995 57.8153 14.5263 57.4893 14.7798C57.1634 15.0334 56.9179 15.3835 56.7528 15.8303C56.5878 16.277 56.5053 16.7881 56.5053 17.3636C56.5053 17.9432 56.5878 18.4603 56.7528 18.9151C56.9219 19.3659 57.1694 19.7221 57.4954 19.9837C57.8254 20.2412 58.2299 20.37 58.7088 20.37ZM70.7762 18.1001V12.7273H72.9616V22H70.8426V20.3519H70.746C70.5367 20.8711 70.1926 21.2957 69.7137 21.6257C69.2388 21.9557 68.6532 22.1207 67.9569 22.1207C67.3492 22.1207 66.8119 21.9859 66.3451 21.7163C65.8823 21.4426 65.52 21.0462 65.2584 20.527C64.9968 20.0038 64.866 19.3719 64.866 18.6314V12.7273H67.0514V18.2933C67.0514 18.8809 67.2124 19.3478 67.5344 19.6939C67.8563 20.04 68.2789 20.2131 68.8021 20.2131C69.1241 20.2131 69.436 20.1346 69.7378 19.9776C70.0397 19.8207 70.2872 19.5872 70.4804 19.2773C70.6776 18.9634 70.7762 18.571 70.7762 18.1001Z" fill="#09382E"/>
<path d="M83.0881 13.5845C82.9875 13.2585 82.8486 12.9667 82.6715 12.7092C82.4985 12.4476 82.2892 12.2242 82.0437 12.0391C81.8022 11.8539 81.5245 11.7151 81.2106 11.6225C80.8967 11.5259 80.5546 11.4776 80.1843 11.4776C79.5202 11.4776 78.9286 11.6446 78.4094 11.9787C77.8903 12.3127 77.4818 12.8037 77.1839 13.4517C76.8902 14.0956 76.7433 14.8804 76.7433 15.8061C76.7433 16.7398 76.8902 17.5307 77.1839 18.1786C77.4777 18.8266 77.8862 19.3196 78.4094 19.6577C78.9326 19.9917 79.5404 20.1587 80.2326 20.1587C80.8604 20.1587 81.4038 20.038 81.8626 19.7965C82.3254 19.555 82.6816 19.2129 82.9311 18.7702C83.1806 18.3235 83.3054 17.8003 83.3054 17.2006L83.8125 17.2791H80.456V15.5284H85.4727V17.0135C85.4727 18.072 85.2473 18.9876 84.7965 19.7603C84.3458 20.533 83.726 21.1287 82.9371 21.5472C82.1483 21.9618 81.2428 22.169 80.2205 22.169C79.0816 22.169 78.0814 21.9135 77.2202 21.4023C76.3629 20.8872 75.6928 20.1567 75.2099 19.2109C74.7309 18.2611 74.4915 17.1342 74.4915 15.8303C74.4915 14.8321 74.6323 13.9407 74.9141 13.1559C75.1998 12.3711 75.5982 11.705 76.1094 11.1577C76.6205 10.6063 77.2202 10.1877 77.9084 9.90199C78.5966 9.61222 79.3452 9.46733 80.1541 9.46733C80.8383 9.46733 81.4762 9.56794 82.0678 9.76918C82.6594 9.96638 83.1847 10.2481 83.6435 10.6143C84.1063 10.9806 84.4866 11.4152 84.7844 11.9183C85.0823 12.4214 85.2775 12.9768 85.37 13.5845H83.0881ZM87.0418 22V12.7273H89.1608V14.2727H89.2574C89.4264 13.7375 89.7162 13.3249 90.1267 13.0352C90.5412 12.7414 91.0141 12.5945 91.5454 12.5945C91.6661 12.5945 91.8009 12.6005 91.9498 12.6126C92.1028 12.6206 92.2296 12.6347 92.3302 12.6548V14.6651C92.2376 14.6329 92.0907 14.6048 91.8895 14.5806C91.6923 14.5524 91.5011 14.5384 91.316 14.5384C90.9175 14.5384 90.5593 14.6249 90.2414 14.7979C89.9275 14.967 89.68 15.2024 89.4988 15.5043C89.3177 15.8061 89.2272 16.1542 89.2272 16.5487V22H87.0418ZM97.0053 22.1811C96.0756 22.1811 95.2727 21.9879 94.5966 21.6016C93.9245 21.2112 93.4073 20.6598 93.0451 19.9474C92.6829 19.2311 92.5018 18.3879 92.5018 17.418C92.5018 16.4641 92.6829 15.627 93.0451 14.9066C93.4113 14.1822 93.9225 13.6187 94.5785 13.2163C95.2345 12.8098 96.0052 12.6065 96.8906 12.6065C97.4621 12.6065 98.0014 12.6991 98.5085 12.8842C99.0196 13.0653 99.4704 13.3471 99.8608 13.7294C100.255 14.1117 100.565 14.5987 100.79 15.1903C101.016 15.7779 101.129 16.4782 101.129 17.2912V17.9613H93.5281V16.4883H99.0337C99.0297 16.0697 98.9392 15.6974 98.7621 15.3714C98.585 15.0414 98.3375 14.7818 98.0195 14.5927C97.7056 14.4035 97.3394 14.3089 96.9208 14.3089C96.4741 14.3089 96.0817 14.4176 95.7436 14.6349C95.4055 14.8482 95.1419 15.13 94.9528 15.4801C94.7676 15.8262 94.6731 16.2066 94.669 16.6211V17.907C94.669 18.4463 94.7676 18.9091 94.9648 19.2955C95.1621 19.6778 95.4377 19.9716 95.7919 20.1768C96.1461 20.3781 96.5606 20.4787 97.0355 20.4787C97.3535 20.4787 97.6412 20.4344 97.8988 20.3459C98.1564 20.2533 98.3797 20.1185 98.5689 19.9414C98.758 19.7643 98.9009 19.545 98.9975 19.2834L101.038 19.5128C100.909 20.0521 100.664 20.523 100.301 20.9254C99.9433 21.3239 99.4845 21.6338 98.9251 21.8551C98.3656 22.0724 97.7257 22.1811 97.0053 22.1811ZM106.582 22.1811C105.653 22.1811 104.85 21.9879 104.174 21.6016C103.502 21.2112 102.984 20.6598 102.622 19.9474C102.26 19.2311 102.079 18.3879 102.079 17.418C102.079 16.4641 102.26 15.627 102.622 14.9066C102.988 14.1822 103.5 13.6187 104.156 13.2163C104.812 12.8098 105.582 12.6065 106.468 12.6065C107.039 12.6065 107.579 12.6991 108.086 12.8842C108.597 13.0653 109.048 13.3471 109.438 13.7294C109.832 14.1117 110.142 14.5987 110.368 15.1903C110.593 15.7779 110.706 16.4782 110.706 17.2912V17.9613H103.105V16.4883H108.611C108.607 16.0697 108.516 15.6974 108.339 15.3714C108.162 15.0414 107.915 14.7818 107.597 14.5927C107.283 14.4035 106.917 14.3089 106.498 14.3089C106.051 14.3089 105.659 14.4176 105.321 14.6349C104.983 14.8482 104.719 15.13 104.53 15.4801C104.345 15.8262 104.25 16.2066 104.246 16.6211V17.907C104.246 18.4463 104.345 18.9091 104.542 19.2955C104.739 19.6778 105.015 19.9716 105.369 20.1768C105.723 20.3781 106.138 20.4787 106.613 20.4787C106.931 20.4787 107.218 20.4344 107.476 20.3459C107.734 20.2533 107.957 20.1185 108.146 19.9414C108.335 19.7643 108.478 19.545 108.575 19.2834L110.615 19.5128C110.486 20.0521 110.241 20.523 109.879 20.9254C109.52 21.3239 109.062 21.6338 108.502 21.8551C107.943 22.0724 107.303 22.1811 106.582 22.1811ZM114.24 16.5668V22H112.055V12.7273H114.143V14.3029H114.252C114.465 13.7837 114.805 13.3712 115.272 13.0653C115.743 12.7595 116.325 12.6065 117.017 12.6065C117.657 12.6065 118.214 12.7434 118.689 13.017C119.168 13.2907 119.538 13.6871 119.8 14.2063C120.066 14.7255 120.196 15.3554 120.192 16.0959V22H118.007V16.4339C118.007 15.8142 117.846 15.3292 117.524 14.979C117.206 14.6289 116.765 14.4538 116.202 14.4538C115.82 14.4538 115.479 14.5384 115.182 14.7074C114.888 14.8724 114.656 15.1119 114.487 15.4258C114.322 15.7397 114.24 16.12 114.24 16.5668Z" fill="#18372E"/>
</g>
<defs>
<clipPath id="clip0_461_1436">
<rect width="124" height="32" fill="white" transform="translate(0.5)"/>
</clipPath>
</defs>
</svg>
