<svg width="27" height="22" viewBox="0 0 27 22" fill="none" xmlns="http://www.w3.org/2000/svg">
<path d="M11.6328 5.38479L0.824538 0.0620834C0.452769 -0.121263 0 0.124459 0 0.508162V15.0416C0 15.6919 0.396692 16.291 1.03015 16.5935L11.8509 21.7593C12.2227 21.937 12.6692 21.6912 12.6692 21.3094V6.96497C12.6692 6.3053 12.2725 5.69856 11.6328 5.38479ZM7.43331 15.2023C6.30554 14.176 5.60769 12.7583 5.60769 11.1933C9.04915 11.1933 11.8385 13.7318 11.8385 16.8638C10.1188 16.8638 8.56108 16.2287 7.43331 15.2023Z" fill="#26E77B"/>
<path d="M26.1753 0.0619613L15.367 5.38467C14.7273 5.69843 14.3306 6.30518 14.3306 6.96485V21.3093C14.3306 21.6911 14.7771 21.9368 15.1489 21.7592L25.9696 16.5933C26.6031 16.2909 26.9998 15.6917 26.9998 15.0415V0.50804C26.9998 0.124337 26.547 -0.121385 26.1753 0.0619613ZM19.7742 10.2878C18.6464 11.3141 17.0887 11.9492 15.369 11.9492C15.369 8.81721 18.1583 6.27872 21.5998 6.27872C21.5998 7.84377 20.902 9.2614 19.7742 10.2878Z" fill="#26E77B"/>
</svg>
